<?xml version="1.0" encoding="utf-8"?>
<!-- Generator: Adobe Illustrator 19.1.0, SVG Export Plug-In . SVG Version: 6.00 Build 0)  -->
<svg version="1.1" id="Layer_1" xmlns="http://www.w3.org/2000/svg" xmlns:xlink="http://www.w3.org/1999/xlink" x="0px" y="0px"
	 viewBox="-1594 2710.3 310.3 81.7" style="enable-background:new -1594 2710.3 310.3 81.7;" xml:space="preserve">
<style type="text/css">
	.st0{fill:#D2D2D2;}
	.st1{fill:#E5E5E5;}
</style>
<g>
	<path class="st0" d="M-1362.7,2738.9c-0.7,0-1.1-0.3-1.1-1c0-0.7,0-2,0-2s1.3,0,1.9,0s1.2,0.2,1.2,1.1c0,0.6,0,1.9,0,1.9
		S-1362,2738.9-1362.7,2738.9z M-1362.6,2760.9c-0.7,0-1.1-0.4-1.1-1.2c0-0.7,0-17.1,0-17.1s0.8,0,1.5,0c0.7,0,1.2,0.3,1.2,1.1
		c0,0.8,0,17.1,0,17.1S-1361.9,2760.9-1362.6,2760.9z"/>
	<path class="st0" d="M-1472.4,2761.3c-7.1,0-12.4-5.6-12.4-12.7c0-7.1,5.2-12.8,12.5-12.8c4.5,0,7.2,1.6,9.6,3.9
		c0,0-0.5,0.6-1.1,1.2c-0.6,0.6-1.3,0.5-1.7,0.1c-1.8-1.6-4-2.6-6.9-2.6c-5.5,0-9.6,4.4-9.6,10.2s4.1,10.2,9.6,10.2
		c2.9,0,4.9-1,7-2.7c0.5-0.5,1.4-0.6,2,0c0.6,0.6,0.9,0.8,0.9,0.8C-1465.1,2759.6-1467.9,2761.3-1472.4,2761.3z"/>
	<path class="st0" d="M-1417.9,2742.2c4.2,0,6.8,2.8,6.8,7.3v11.3c0,0-0.5,0-1.4,0c-1.1,0-1.3-0.6-1.3-1.4c0-0.8,0-9.3,0-9.3
		c0-3.5-1.8-5.5-4.7-5.5c-2.8,0-5.1,2-5.1,5.7v10.5c0,0-0.8,0-1.5,0s-1.2-0.3-1.2-1.2c0-0.9,0-9.6,0-9.6c0-3.4-1.8-5.4-4.7-5.4
		c-2.9,0-5.1,2.4-5.1,5.8c0,0,0,8.3,0,9.3c0,1-0.3,1.1-1.1,1.1c-0.8,0-1.6,0-1.6,0v-18.3c0,0,0.6,0,1.5,0c0.9,0,1.2,0.5,1.2,1.3
		c0,0.7,0,1.8,0,1.8c1.2-1.8,2.8-3.5,5.9-3.5c3,0,4.9,1.6,5.9,3.6C-1423,2743.8-1421.1,2742.2-1417.9,2742.2z"/>
	<path class="st0" d="M-1396.4,2761.3c-3.4,0-5.6-1.8-7-3.9v9.1c0,0-0.9,0-1.6,0c-0.7,0-1.1-0.4-1.1-1.2c0-0.8,0-22.7,0-22.7
		s0.6,0,1.3,0c0.9,0,1.4,0.4,1.4,1.3c0,0.7,0,2.4,0,2.4c1.5-2.2,3.6-4.1,7-4.1c4.4,0,8.7,3.5,8.7,9.5
		C-1387.7,2757.7-1392,2761.3-1396.4,2761.3z M-1396.9,2744.7c-3.4,0-6.6,2.8-6.6,7.1c0,4.3,3.2,7.1,6.6,7.1c3.5,0,6.4-2.6,6.4-7.1
		C-1390.4,2747.4-1393.4,2744.7-1396.9,2744.7z"/>
	<path class="st0" d="M-1347.5,2766.6c-3,0-5.9-0.8-8.3-2.5c0,0,0.2-0.3,0.7-1.1c0.5-0.8,1.1-0.6,1.9-0.1c1.7,1,3.6,1.5,5.7,1.5
		c4,0,6.6-2.2,6.6-6.5v-2.2c-1.6,2.1-3.8,3.8-7.2,3.8c-4.4,0-8.6-3.2-8.6-8.6c0-5.4,4.2-8.7,8.6-8.7c3.4,0,5.7,1.7,7.1,3.7
		c0,0,0-1.3,0-2.1s0.7-1.2,1.2-1.2c0.5,0,1.5,0,1.5,0v15.1C-1338.2,2763.6-1341.9,2766.6-1347.5,2766.6z M-1347.5,2744.6
		c-3.5,0-6.3,2.4-6.3,6.2c0,3.7,2.9,6.3,6.3,6.3c3.5,0,6.7-2.5,6.7-6.2C-1340.8,2747.1-1344,2744.6-1347.5,2744.6z"/>
	<path class="st0" d="M-1330.3,2760.9h-2.7v-18.3c0,0,0.8,0,1.5,0c0.6,0,1.2,0.4,1.2,1.1c0,0.7,0,2.1,0,2.1c1.2-2,3.1-3.6,6.3-3.6
		c4.4,0,7,3,7,7.3v11.3c0,0-0.9,0-1.7,0c-0.8,0-1.1-0.4-1.1-1.1c0-0.8,0-9.5,0-9.5c0-3.4-1.8-5.5-5.1-5.5c-3.1,0-5.5,2.3-5.5,5.7
		V2760.9z"/>
	<path class="st0" d="M-1376.3,2742.4c-2.6,0-4.6,0.6-6.6,1.5c0,0,0.3,0.8,0.5,1.5c0.2,0.6,1,0.5,1.3,0.3c1.4-0.5,2.8-0.9,4.5-0.9
		c3.4,0,5.4,1.7,5.4,4.9l0,4.4c0,2.9-2.7,4.9-6.1,4.9c-2.5,0-4.6-1.3-4.6-3.7c0-2.3,1.9-3.6,5.3-3.6c0.6,0,1.5,0,2,0
		c0.8,0,1.2-0.4,1.2-1.1c0-0.8,0-0.9,0-0.9c-0.9,0-2.4,0-3.5,0c-4.6,0-7.8,1.9-7.8,5.7c0,3.8,3.4,5.7,6.8,5.7c3.2,0,5.3-1.5,6.6-3.1
		c0,0,0,1,0,1.7c0,0.7,0.3,1.1,1.1,1.1c0.6,0,1.5,0,1.5,0v-11.2C-1368.6,2744.9-1371.3,2742.4-1376.3,2742.4z"/>
	<path class="st0" d="M-1451.5,2742.4c-2.6,0-4.6,0.6-6.6,1.5c0,0,0.3,0.8,0.5,1.5c0.2,0.6,1,0.5,1.3,0.3c1.4-0.5,2.8-0.9,4.5-0.9
		c3.4,0,5.4,1.7,5.4,4.9l0,4.4c0,2.9-2.7,4.9-6.1,4.9c-2.5,0-4.6-1.3-4.6-3.7c0-2.3,1.9-3.6,5.3-3.6c0.6,0,1.5,0,2,0
		c0.8,0,1.2-0.4,1.2-1.1c0-0.8,0-0.9,0-0.9c-0.9,0-2.4,0-3.5,0c-4.6,0-7.8,1.9-7.8,5.7c0,3.8,3.4,5.7,6.8,5.7c3.2,0,5.3-1.5,6.6-3.1
		c0,0,0,1,0,1.7c0,0.7,0.3,1.1,1.1,1.1c0.6,0,1.5,0,1.5,0v-11.2C-1443.7,2744.9-1446.5,2742.4-1451.5,2742.4z"/>
</g>
<g>
	<path class="st1" d="M-1286.3,2753c0.7-0.5,0.9-1.2,0.9-1.8c0-0.6,0,0.6,0-0.3c0-0.7-0.4-1.2-0.9-1.6c-0.5-0.4-18.2-12.7-18.2-12.7
		s0,1.6,0,2.6c0,0.9,0.5,1.2,1.1,1.7c0.9,0.6,14.8,10.3,14.8,10.3s-14,9.7-14.9,10.3c-0.9,0.6-1,1-1,1.7c0,0.8,0,2.5,0,2.5
		S-1287.1,2753.5-1286.3,2753z"/>
	<path class="st1" d="M-1304.5,2745.3c0,0.7,0,1.8,0,1.8s5.5,3.8,6.5,4.5c0.9,0.6,1.7,0.6,2.6-0.1c0.6-0.4,1.1-0.8,1.1-0.8
		s-8-5.5-8.8-6.1C-1303.8,2744.2-1304.5,2744.5-1304.5,2745.3z"/>
	<path class="st1" d="M-1556.7,2761.3c-5.3,0-9.4-4.3-9.4-9.5c0-5.2,4-9.6,9.4-9.6c3.5,0,5.6,1.4,7.3,3.2c0,0-0.5,0.6-1,1.1
		c-0.5,0.6-1.1,0.5-1.8-0.1c-1.2-1-2.6-1.8-4.6-1.8c-3.7,0-6.5,3.1-6.5,7.1c0,4,2.9,7.1,6.7,7.1c1.9,0,3.4-0.8,4.7-1.9
		c0.3-0.3,1.1-0.6,1.7,0c0.6,0.6,0.9,0.8,0.9,0.8C-1551,2759.8-1553.2,2761.3-1556.7,2761.3z"/>
	<path class="st1" d="M-1531,2738.9c-0.7,0-1.1-0.3-1.1-1c0-0.7,0-2,0-2s1.3,0,1.9,0c0.6,0,1.2,0.4,1.2,1.2c0,0.6,0,1.8,0,1.8
		S-1530.3,2738.9-1531,2738.9z M-1530.9,2760.9c-0.7,0-1.1-0.4-1.1-1.2c0-0.7,0-17.1,0-17.1s0.8,0,1.5,0c0.7,0,1.2,0.3,1.2,1.1
		c0,0.8,0,17.1,0,17.1S-1530.2,2760.9-1530.9,2760.9z"/>
	<path class="st1" d="M-1510.7,2743.6c0.3-0.7,0.8-1,1.5-1c0.7,0,1.8,0,1.8,0s-7.3,16.7-7.6,17.4c-0.3,0.7-0.7,0.9-1.3,0.9
		c-0.5,0,0,0-0.4,0c-0.7,0-1.1-0.1-1.4-0.8c-0.3-0.7-7.6-17.5-7.6-17.5s1.2,0,1.9,0c0.7,0,1.3,0.3,1.5,1c0.3,0.7,5.7,14.1,5.7,14.1
		S-1511,2744.3-1510.7,2743.6z"/>
	<path class="st1" d="M-1491.4,2752.9c2.1,0,2.8-1.4,2.7-3c-0.4-4.4-3.6-7.7-8.4-7.7c-5,0-8.8,4.2-8.8,9.5c0,5.7,4.1,9.5,9.1,9.5
		c3.5,0,5.7-1.4,7.5-3.4c0,0-0.4-0.4-0.9-0.8c-0.6-0.5-1.2-0.3-1.5,0c-1.3,1.2-2.9,1.9-5,1.9c-3.2,0-6-2.2-6.4-6.2c0,0,0-0.4,0-1
		c0-0.6,0-1,0-1c0.4-3.6,2.8-6.2,5.9-6.2c3.3,0,5.4,2.3,5.7,5.2c0.1,0.7-0.1,1-0.6,1c-2.1,0-6.7,0-7.3,0c-0.7,0-1.2,0.4-1.2,1.1
		c0,0.7,0,1,0,1C-1496.9,2752.9-1492.2,2752.9-1491.4,2752.9z"/>
	<path class="st1" d="M-1578.1,2736.8c-0.3-0.7-0.7-0.9-1.4-0.9c-0.7,0-0.1,0-0.7,0c-0.6,0-1,0.3-1.3,0.8
		c-0.3,0.6-10.9,24.2-10.9,24.2s0.9,0,1.7,0c0.8,0,1.3-0.4,1.6-1.1c0.4-0.8,2.4-5.4,2.4-5.4s7.1,0,8.3,0c0.9,0,1.4-0.5,1.4-1.3
		c0-0.8,0-1.2,0-1.2h-8.6l5.7-12.7c0,0,8.9,20,9.2,20.8c0.4,0.8,1.2,0.9,1.9,0.9c0.7,0,1.5,0,1.5,0S-1577.7,2737.5-1578.1,2736.8z"
		/>
	<path class="st1" d="M-1542.5,2755.7c0,2.2,1.2,3,3.1,3c0.7,0,1.2-0.1,1.8-0.3c0.6-0.2,1.3,0,1.3,0.8c0,0.6,0,1.2,0,1.2
		c-1,0.5-2.4,0.8-3.7,0.8c-2.9,0-5.2-1.4-5.2-5.2v-20.1c0,0,0.8,0,1.3,0c0.8,0,1.4,0.4,1.4,1.3c0,0.9,0,5.5,0,5.5s3.7,0,4.4,0
		c0.7,0,1.4,0.3,1.4,1.2c0,0.6,0,1.2,0,1.2h-5.8V2755.7z"/>
</g>
</svg>
