<?xml version="1.0" encoding="utf-8"?>
<!-- Generator: Adobe Illustrator 19.1.0, SVG Export Plug-In . SVG Version: 6.00 Build 0)  -->
<svg version="1.1" id="Layer_1" xmlns="http://www.w3.org/2000/svg" xmlns:xlink="http://www.w3.org/1999/xlink" x="0px" y="0px"
	 viewBox="-293 384 25 25" style="enable-background:new -293 384 25 25;" xml:space="preserve">
<style type="text/css">
	.st0{fill:#BD404D;}
</style>
<path id="XMLID_436_" class="st0" d="M-268.2,396.5c0,6.8-5.5,12.3-12.3,12.3s-12.3-5.5-12.3-12.3s5.5-12.3,12.3-12.3
	S-268.2,389.7-268.2,396.5z M-278.4,397.4c1.3-0.4,2.1-1.4,2.4-3c0.2-1.1,0.1-1.9-0.5-2.4c-0.4-0.4-1.2-0.6-2.2-0.7l-1,1.8
	c0.7,0,1.1,0.1,1.4,0.3c0.2,0.2,0.3,0.5,0.2,1.1c-0.1,0.5-0.3,0.9-0.6,1.1c-0.3,0.2-0.8,0.4-1.6,0.4h-0.2l-1.1,1.8h0.8l1.5,3h2.6
	L-278.4,397.4z M-281.3,395.9h-0.8l2.6-4.6h-3l-2.1,6.5h0.7l-2,6.1L-281.3,395.9z"/>
</svg>
