<?xml version="1.0" encoding="utf-8"?>
<!-- Generator: Adobe Illustrator 19.1.0, SVG Export Plug-In . SVG Version: 6.00 Build 0)  -->
<svg version="1.1" id="Layer_1" xmlns="http://www.w3.org/2000/svg" xmlns:xlink="http://www.w3.org/1999/xlink" x="0px" y="0px"
	 viewBox="-1511 2625 475.8 252" style="enable-background:new -1511 2625 475.8 252;" xml:space="preserve">
<style type="text/css">
	.st0{fill:#D2D2D2;}
	.st1{fill:#FFFFFF;}
</style>
<path id="path3005" class="st0" d="M-1303.1,2653c11.6-12,27.6-19.5,45.4-19.5
	c23.6,0,44.3,13.2,55.3,32.8c9.5-4.3,20.1-6.6,31.2-6.6c42.6,0,77.2,34.9,77.2,77.9c0,43-34.6,77.9-77.2,77.9
	c-5.2,0-10.3-0.5-15.2-1.5c-9.7,17.3-28.1,28.9-49.3,28.9c-8.9,0-17.2-2-24.7-5.7c-9.8,23.1-32.7,39.2-59.3,39.2
	c-27.7,0-51.4-17.5-60.4-42.2c-4,0.8-8.1,1.3-12.3,1.3c-33,0-59.8-27-59.8-60.4c0-22.4,12-41.9,29.9-52.3
	c-3.7-8.5-5.7-17.8-5.7-27.6c0-38.4,31.2-69.5,69.6-69.5C-1335.9,2625.6-1315.8,2636.4-1303.1,2653"/>
<g>
	<path id="path3009" class="st1" d="M-1400.3,2755.7c-0.2,0.6,0.1,0.7,0.2,0.8
		c0.7,0.5,1.4,0.8,2,1.2c3.7,1.9,7.1,2.5,10.7,2.5c7.3,0,11.9-3.9,11.9-10.2v-0.1c0-5.8-5.1-7.9-10-9.5l-0.6-0.2
		c-3.6-1.2-6.8-2.2-6.8-4.6v-0.1c0-2.1,1.8-3.6,4.7-3.6c3.2,0,6.9,1.1,9.3,2.4c0,0,0.7,0.5,1-0.2c0.1-0.4,1.4-3.7,1.5-4
		c0.1-0.4-0.1-0.7-0.4-0.8c-2.8-1.7-6.6-2.8-10.5-2.8l-0.7,0c-6.7,0-11.4,4.1-11.4,9.9v0.1c0,6.1,5.2,8.1,10,9.5l0.8,0.2
		c3.5,1.1,6.6,2,6.6,4.5v0.1c0,2.3-2,4-5.2,4c-1.2,0-5.2,0-9.5-2.7c-0.5-0.3-0.8-0.5-1.2-0.8c-0.2-0.1-0.7-0.4-1,0.3L-1400.3,2755.7
		z"/>
	<path id="path3013" class="st1" d="M-1292.8,2755.7c-0.2,0.6,0.1,0.7,0.2,0.8
		c0.7,0.5,1.4,0.8,2,1.2c3.7,1.9,7.1,2.5,10.7,2.5c7.3,0,11.9-3.9,11.9-10.2v-0.1c0-5.8-5.1-7.9-10-9.5l-0.6-0.2
		c-3.6-1.2-6.8-2.2-6.8-4.6v-0.1c0-2.1,1.8-3.6,4.7-3.6c3.2,0,6.9,1.1,9.3,2.4c0,0,0.7,0.5,1-0.2c0.1-0.4,1.4-3.7,1.5-4
		c0.1-0.4-0.1-0.7-0.4-0.8c-2.8-1.7-6.6-2.8-10.5-2.8l-0.7,0c-6.7,0-11.4,4.1-11.4,9.9v0.1c0,6.1,5.2,8.1,10,9.5l0.8,0.2
		c3.5,1.1,6.6,2,6.6,4.5v0.1c0,2.3-2,4-5.2,4c-1.2,0-5.2,0-9.5-2.7c-0.5-0.3-0.8-0.5-1.2-0.8c-0.1-0.1-0.8-0.3-1,0.3L-1292.8,2755.7
		z"/>
	<path id="path3017" class="st1" d="M-1219.3,2743.3c0,3.6-0.7,6.4-2,8.3c-1.3,2-3.2,2.9-6,2.9
		c-2.7,0-4.7-0.9-5.9-2.9c-1.3-2-1.9-4.8-1.9-8.3c0-3.6,0.7-6.3,1.9-8.3c1.3-1.9,3.2-2.9,5.9-2.9c2.7,0,4.7,0.9,6,2.9
		C-1220,2737-1219.3,2739.8-1219.3,2743.3 M-1213.2,2736.7c-0.6-2-1.5-3.8-2.8-5.3c-1.3-1.5-2.8-2.7-4.7-3.6
		c-1.9-0.9-4.1-1.3-6.6-1.3c-2.5,0-4.7,0.4-6.6,1.3c-1.9,0.9-3.5,2.1-4.7,3.6c-1.2,1.5-2.2,3.3-2.8,5.3c-0.6,2-0.9,4.2-0.9,6.6
		s0.3,4.6,0.9,6.6c0.6,2,1.5,3.8,2.8,5.3c1.3,1.5,2.8,2.7,4.7,3.6c1.9,0.9,4.1,1.3,6.6,1.3c2.5,0,4.7-0.4,6.6-1.3
		c1.9-0.9,3.5-2.1,4.7-3.6c1.3-1.5,2.2-3.3,2.8-5.3c0.6-2,0.9-4.2,0.9-6.6S-1212.6,2738.8-1213.2,2736.7"/>
	<path id="path3021" class="st1" d="M-1162.8,2753.6c-0.2-0.6-0.8-0.4-0.8-0.4
		c-0.9,0.3-1.8,0.7-2.9,0.8c-1,0.2-2.2,0.2-3.4,0.2c-3,0-5.3-0.9-7-2.6c-1.7-1.7-2.6-4.6-2.6-8.4c0-3.5,0.8-6.1,2.4-8.1
		c1.5-2,3.8-3,6.8-3c2.5,0,4.5,0.3,6.5,0.9c0,0,0.5,0.2,0.7-0.4c0.5-1.5,0.9-2.6,1.5-4.2c0.2-0.5-0.2-0.7-0.4-0.7
		c-0.8-0.3-2.7-0.8-4.1-1c-1.3-0.2-2.9-0.3-4.6-0.3c-2.6,0-4.9,0.4-6.8,1.3c-2,0.9-3.6,2.1-4.9,3.6c-1.3,1.5-2.3,3.3-3,5.3
		c-0.7,2-1,4.3-1,6.6c0,5.1,1.4,9.2,4.1,12.2c2.7,3,6.8,4.6,12.1,4.6c3.1,0,6.4-0.6,8.7-1.6c0,0,0.4-0.2,0.2-0.7L-1162.8,2753.6z"/>
	<path id="path3025" class="st1" d="M-1152.1,2739.9c0.3-2,0.8-3.6,1.7-4.9c1.3-1.9,3.2-3,5.9-3
		c2.7,0,4.5,1.1,5.8,3c0.9,1.3,1.2,3,1.4,4.9H-1152.1z M-1131.4,2735.6c-0.5-2-1.8-3.9-2.7-4.9c-1.3-1.4-2.6-2.4-3.9-3
		c-1.7-0.7-3.7-1.2-5.9-1.2c-2.6,0-4.9,0.4-6.9,1.3c-1.9,0.9-3.5,2.1-4.8,3.6c-1.3,1.5-2.2,3.3-2.8,5.4c-0.6,2-0.9,4.3-0.9,6.6
		c0,2.4,0.3,4.6,0.9,6.6c0.6,2,1.6,3.8,3,5.3c1.4,1.5,3.1,2.6,5.2,3.5c2.1,0.8,4.6,1.2,7.5,1.2c6,0,9.2-1.4,10.5-2.1
		c0.2-0.1,0.4-0.4,0.2-1l-1.4-3.8c-0.2-0.6-0.8-0.4-0.8-0.4c-1.5,0.6-3.6,1.5-8.5,1.5c-3.2,0-5.6-1-7.1-2.4
		c-1.5-1.5-2.3-3.8-2.4-6.9l20.8,0c0,0,0.5,0,0.6-0.5C-1130.8,2744.3-1130.1,2740.3-1131.4,2735.6"/>
	<path id="path3029" class="st1" d="M-1318.4,2739.9c0.3-2,0.8-3.6,1.7-4.9c1.3-1.9,3.2-3,5.9-3
		c2.7,0,4.5,1.1,5.8,3c0.9,1.3,1.2,3,1.4,4.9H-1318.4z M-1297.7,2735.6c-0.5-2-1.8-3.9-2.7-4.9c-1.3-1.4-2.6-2.4-3.9-3
		c-1.7-0.7-3.7-1.2-5.9-1.2c-2.6,0-4.9,0.4-6.9,1.3c-1.9,0.9-3.5,2.1-4.8,3.6c-1.3,1.5-2.2,3.3-2.8,5.4c-0.6,2-0.9,4.3-0.9,6.6
		c0,2.4,0.3,4.6,0.9,6.6c0.6,2,1.6,3.8,3,5.3c1.4,1.5,3.1,2.6,5.2,3.5c2.1,0.8,4.6,1.2,7.5,1.2c6,0,9.2-1.4,10.5-2.1
		c0.2-0.1,0.4-0.4,0.2-1l-1.4-3.8c-0.2-0.6-0.8-0.4-0.8-0.4c-1.5,0.6-3.6,1.5-8.5,1.5c-3.2,0-5.6-1-7.1-2.4
		c-1.5-1.5-2.3-3.8-2.4-6.9l20.8,0c0,0,0.5,0,0.6-0.5C-1297.1,2744.3-1296.4,2740.3-1297.7,2735.6"/>
	<path id="path3033" class="st1" d="M-1363.2,2753.5c-0.8-0.6-0.9-0.8-1.2-1.2
		c-0.4-0.6-0.6-1.5-0.6-2.7c0-1.8,0.6-3.1,1.9-4c0,0,1.8-1.6,6-1.5c3,0,5.6,0.5,5.6,0.5v9.4h0c0,0-2.6,0.6-5.6,0.7
		C-1361.4,2755-1363.3,2753.5-1363.2,2753.5 M-1355,2738.9c-0.8-0.1-1.9-0.1-3.2-0.1c-1.8,0-3.5,0.2-5.1,0.7c-1.6,0.4-3.1,1.1-4.3,2
		c-1.3,0.9-2.3,2.1-3,3.4c-0.7,1.4-1.1,3-1.1,4.8c0,1.8,0.3,3.4,0.9,4.7c0.6,1.3,1.5,2.4,2.7,3.2c1.2,0.8,2.6,1.5,4.2,1.8
		c1.6,0.4,3.5,0.6,5.5,0.6c2.1,0,4.3-0.2,6.3-0.5c2-0.3,4.5-0.9,5.2-1c0.7-0.2,1.5-0.4,1.5-0.4c0.5-0.1,0.5-0.7,0.5-0.7l0-19
		c0-4.2-1.1-7.3-3.3-9.2c-2.2-1.9-5.4-2.9-9.5-2.9c-1.6,0-4.1,0.2-5.6,0.5c0,0-4.5,0.9-6.4,2.3c0,0-0.4,0.3-0.2,0.8l1.5,3.9
		c0.2,0.5,0.7,0.3,0.7,0.3s0.2-0.1,0.3-0.2c4-2.2,9-2.1,9-2.1c2.2,0,4,0.4,5.1,1.3c1.1,0.9,1.7,2.2,1.7,4.9v0.9
		C-1353.3,2739.1-1355,2738.9-1355,2738.9"/>
	<path id="path3037" class="st1" d="M-1187.5,2728.2c0.2-0.5-0.2-0.7-0.3-0.7
		c-0.4-0.1-2.1-0.5-3.5-0.6c-2.6-0.2-4.1,0.3-5.4,0.9c-1.3,0.6-2.7,1.5-3.5,2.6v-2.5c0-0.4-0.2-0.6-0.6-0.6h-5.3
		c-0.3,0-0.6,0.3-0.6,0.6v31c0,0.3,0.3,0.6,0.6,0.6h5.5c0.3,0,0.6-0.3,0.6-0.6v-15.5c0-2.1,0.2-4.1,0.7-5.4c0.4-1.3,1.1-2.3,1.8-3.1
		c0.8-0.7,1.6-1.2,2.6-1.5c1-0.3,2-0.4,2.8-0.4c1.1,0,2.3,0.3,2.3,0.3c0.4,0,0.6-0.2,0.8-0.6
		C-1188.7,2731.6-1187.7,2728.8-1187.5,2728.2"/>
	<path id="path3041" class="st1" d="M-1238.7,2713.9c-0.7-0.2-1.3-0.3-2.1-0.5
		c-0.8-0.1-1.7-0.2-2.8-0.2c-3.8,0-6.7,1.1-8.8,3.2c-2.1,2.1-3.5,5.3-4.2,9.4l-0.3,1.4h-4.7c0,0-0.6,0-0.7,0.6l-0.8,4.3
		c-0.1,0.4,0.1,0.7,0.7,0.7h4.6l-4.7,26c-0.4,2.1-0.8,3.8-1.2,5.1c-0.5,1.3-0.9,2.3-1.4,3c-0.5,0.7-1,1.2-1.9,1.5
		c-0.7,0.2-1.5,0.4-2.4,0.4c-0.5,0-1.2-0.1-1.7-0.2c-0.5-0.1-0.8-0.2-1.1-0.4c0,0-0.5-0.2-0.8,0.3c-0.2,0.4-1.4,3.8-1.5,4.2
		c-0.1,0.4,0.1,0.7,0.3,0.8c0.6,0.2,1.1,0.4,1.9,0.6c1.2,0.3,2.1,0.3,3,0.3c1.9,0,3.7-0.3,5.1-0.8c1.4-0.5,2.7-1.4,3.8-2.7
		c1.2-1.3,2-2.7,2.7-4.6c0.7-1.9,1.3-4.2,1.8-7l4.7-26.5h6.8c0,0,0.6,0,0.7-0.6l0.8-4.3c0.1-0.4-0.1-0.7-0.7-0.7h-6.6
		c0-0.1,0.3-2.5,1.1-4.7c0.3-0.9,0.9-1.7,1.5-2.2c0.5-0.5,1.1-0.9,1.7-1.1c0.7-0.2,1.4-0.3,2.2-0.3c0.6,0,1.2,0.1,1.7,0.2
		c0.6,0.1,0.9,0.2,1.1,0.3c0.7,0.2,0.8,0,0.9-0.3l1.6-4.4C-1238.2,2714.1-1238.6,2713.9-1238.7,2713.9"/>
	<path id="path3045" class="st1" d="M-1331.5,2758.8c0,0.3-0.3,0.6-0.6,0.6h-5.5
		c-0.3,0-0.6-0.3-0.6-0.6v-44.3c0-0.3,0.2-0.6,0.6-0.6h5.5c0.3,0,0.6,0.3,0.6,0.6V2758.8z"/>
</g>
</svg>
